<svg id="Layer_1" data-name="Layer 1" xmlns="http://www.w3.org/2000/svg" viewBox="0 0 399.32 455.52"><defs><style>.cls-1,.cls-2{fill:#3154ff;}.cls-1,.cls-3,.cls-4{stroke:#fff;}.cls-1,.cls-3{stroke-linecap:round;stroke-linejoin:round;}.cls-3,.cls-4{fill:none;stroke-width:8px;}.cls-4{stroke-miterlimit:10;}</style></defs><title>arv-logo</title><polygon class="cls-1" points="28.44 128.26 27.88 326.29 199.1 425.79 370.88 327.26 371.44 129.23 200.22 29.73 28.44 128.26"/><path class="cls-1" d="M.6,120.7,0,332.7a15.26,15.26,0,0,0,7.59,13.24l183.3,106.51a15.26,15.26,0,0,0,15.26.05L390.05,347a15.28,15.28,0,0,0,7.67-13.2l.6-212a15.28,15.28,0,0,0-7.6-13.25L207.43,2.07a15.28,15.28,0,0,0-15.27,0L8.27,107.5A15.28,15.28,0,0,0,.6,120.7Z" transform="translate(0.5 0.5)"/><polygon class="cls-2" points="371.44 128.75 199.16 228.26 198.6 426.26 370.88 327.75 371.44 128.75"/><polygon class="cls-1" points="199.16 227.26 28.44 127.78 27.88 326.77 198.6 426.26 199.16 227.26"/><polygon class="cls-3" points="371.16 128.26 199.16 29.26 28.16 128.26 371.16 128.26"/><polygon class="cls-3" points="371.16 128.26 28.16 128.26 28.16 236.18 28.16 236.18 28.16 327.26 371.16 327.26 200.16 277.26 371.16 128.26"/><polygon class="cls-3" points="371.16 327.26 199.16 426.26 28.16 327.26 371.16 327.26"/><polyline class="cls-4" points="199.16 426.26 199.16 228.05 28.16 128.26"/></svg>